<mxfile host="app.diagrams.net" agent="Mozilla/5.0 (Windows NT 10.0; Win64; x64) AppleWebKit/537.36 (KHTML, like Gecko) Chrome/128.0.0.0 Safari/537.36" version="24.7.12">
  <diagram name="PÃ¡gina-1" id="xco5a_yy5CZVuuehiNIp">
    <mxGraphModel dx="3549" dy="1390" grid="1" gridSize="10" guides="1" tooltips="1" connect="1" arrows="1" fold="1" page="1" pageScale="1" pageWidth="827" pageHeight="1169" math="0" shadow="0">
      <root>
        <mxCell id="0" />
        <mxCell id="1" parent="0" />
        <mxCell id="sZMAS4d0KbfVJv_1hAJX-1" value="&lt;font style=&quot;font-size: 25px;&quot; face=&quot;Computer Modern&quot;&gt;Gene Length&lt;/font&gt;" style="rounded=0;whiteSpace=wrap;html=1;fillColor=#becb2f;strokeColor=none;" vertex="1" parent="1">
          <mxGeometry x="200" y="400" width="480" height="40" as="geometry" />
        </mxCell>
        <mxCell id="sZMAS4d0KbfVJv_1hAJX-2" value="" style="rounded=0;whiteSpace=wrap;html=1;spacing=0;fillColor=#5cb195;strokeColor=none;" vertex="1" parent="1">
          <mxGeometry x="200" y="40" width="40" height="360" as="geometry" />
        </mxCell>
        <mxCell id="sZMAS4d0KbfVJv_1hAJX-3" value="" style="endArrow=baseDash;startArrow=baseDash;html=1;rounded=0;strokeWidth=3.1496;startFill=0;endFill=0;endSize=29.1338;startSize=29.1338;strokeColor=#f7ac00;" edge="1" parent="1">
          <mxGeometry width="50" height="50" relative="1" as="geometry">
            <mxPoint x="200" y="570.0799999999999" as="sourcePoint" />
            <mxPoint x="610" y="570" as="targetPoint" />
          </mxGeometry>
        </mxCell>
        <mxCell id="sZMAS4d0KbfVJv_1hAJX-71" value="Text" style="edgeLabel;html=1;align=center;verticalAlign=middle;resizable=0;points=[];" vertex="1" connectable="0" parent="sZMAS4d0KbfVJv_1hAJX-3">
          <mxGeometry x="0.0113" y="-1" relative="1" as="geometry">
            <mxPoint as="offset" />
          </mxGeometry>
        </mxCell>
        <mxCell id="sZMAS4d0KbfVJv_1hAJX-72" value="&lt;font style=&quot;font-size: 25px;&quot; face=&quot;Computer Modern&quot;&gt;Coverage&lt;/font&gt;&lt;div style=&quot;font-size: 25px;&quot;&gt;&lt;font style=&quot;font-size: 25px;&quot; face=&quot;FNxoUceLzFfN_3sLXCh4&quot;&gt;or&lt;/font&gt;&lt;/div&gt;&lt;div style=&quot;font-size: 25px;&quot;&gt;&lt;font style=&quot;font-size: 25px;&quot; face=&quot;FNxoUceLzFfN_3sLXCh4&quot;&gt;Breadth of Coverage&lt;/font&gt;&lt;/div&gt;" style="edgeLabel;html=1;align=center;verticalAlign=middle;resizable=0;points=[];" vertex="1" connectable="0" parent="sZMAS4d0KbfVJv_1hAJX-3">
          <mxGeometry x="0.0232" y="-1" relative="1" as="geometry">
            <mxPoint as="offset" />
          </mxGeometry>
        </mxCell>
        <mxCell id="sZMAS4d0KbfVJv_1hAJX-4" value="" style="endArrow=none;html=1;rounded=0;strokeWidth=5.1181;" edge="1" parent="1">
          <mxGeometry width="50" height="50" relative="1" as="geometry">
            <mxPoint x="260" y="60" as="sourcePoint" />
            <mxPoint x="330" y="60" as="targetPoint" />
          </mxGeometry>
        </mxCell>
        <mxCell id="sZMAS4d0KbfVJv_1hAJX-5" value="" style="endArrow=none;html=1;rounded=0;strokeWidth=5.1181;" edge="1" parent="1">
          <mxGeometry width="50" height="50" relative="1" as="geometry">
            <mxPoint x="280" y="100" as="sourcePoint" />
            <mxPoint x="350" y="100" as="targetPoint" />
          </mxGeometry>
        </mxCell>
        <mxCell id="sZMAS4d0KbfVJv_1hAJX-6" value="" style="endArrow=none;html=1;rounded=0;strokeWidth=5.1181;" edge="1" parent="1">
          <mxGeometry width="50" height="50" relative="1" as="geometry">
            <mxPoint x="360" y="100" as="sourcePoint" />
            <mxPoint x="430" y="100" as="targetPoint" />
          </mxGeometry>
        </mxCell>
        <mxCell id="sZMAS4d0KbfVJv_1hAJX-7" value="" style="endArrow=none;html=1;rounded=0;strokeWidth=5.1181;" edge="1" parent="1">
          <mxGeometry width="50" height="50" relative="1" as="geometry">
            <mxPoint x="270" y="140" as="sourcePoint" />
            <mxPoint x="340" y="140" as="targetPoint" />
          </mxGeometry>
        </mxCell>
        <mxCell id="sZMAS4d0KbfVJv_1hAJX-8" value="" style="endArrow=none;html=1;rounded=0;strokeWidth=5.1181;" edge="1" parent="1">
          <mxGeometry width="50" height="50" relative="1" as="geometry">
            <mxPoint x="360" y="140" as="sourcePoint" />
            <mxPoint x="430" y="140" as="targetPoint" />
          </mxGeometry>
        </mxCell>
        <mxCell id="sZMAS4d0KbfVJv_1hAJX-9" value="" style="endArrow=none;html=1;rounded=0;strokeWidth=5.1181;" edge="1" parent="1">
          <mxGeometry width="50" height="50" relative="1" as="geometry">
            <mxPoint x="450" y="140" as="sourcePoint" />
            <mxPoint x="520" y="140" as="targetPoint" />
          </mxGeometry>
        </mxCell>
        <mxCell id="sZMAS4d0KbfVJv_1hAJX-10" value="" style="endArrow=none;html=1;rounded=0;strokeWidth=5.1181;" edge="1" parent="1">
          <mxGeometry width="50" height="50" relative="1" as="geometry">
            <mxPoint x="540" y="140" as="sourcePoint" />
            <mxPoint x="610" y="140" as="targetPoint" />
          </mxGeometry>
        </mxCell>
        <mxCell id="sZMAS4d0KbfVJv_1hAJX-11" value="" style="endArrow=none;html=1;rounded=0;strokeWidth=5.1181;" edge="1" parent="1">
          <mxGeometry width="50" height="50" relative="1" as="geometry">
            <mxPoint x="300" y="180" as="sourcePoint" />
            <mxPoint x="370" y="180" as="targetPoint" />
          </mxGeometry>
        </mxCell>
        <mxCell id="sZMAS4d0KbfVJv_1hAJX-12" value="" style="endArrow=none;html=1;rounded=0;strokeWidth=5.1181;" edge="1" parent="1">
          <mxGeometry width="50" height="50" relative="1" as="geometry">
            <mxPoint x="390" y="180" as="sourcePoint" />
            <mxPoint x="460" y="180" as="targetPoint" />
          </mxGeometry>
        </mxCell>
        <mxCell id="sZMAS4d0KbfVJv_1hAJX-13" value="" style="endArrow=none;html=1;rounded=0;strokeWidth=5.1181;" edge="1" parent="1">
          <mxGeometry width="50" height="50" relative="1" as="geometry">
            <mxPoint x="480" y="180" as="sourcePoint" />
            <mxPoint x="550" y="180" as="targetPoint" />
          </mxGeometry>
        </mxCell>
        <mxCell id="sZMAS4d0KbfVJv_1hAJX-14" value="" style="endArrow=none;html=1;rounded=0;strokeWidth=5.1181;" edge="1" parent="1">
          <mxGeometry width="50" height="50" relative="1" as="geometry">
            <mxPoint x="260" y="219.5" as="sourcePoint" />
            <mxPoint x="330" y="219.5" as="targetPoint" />
          </mxGeometry>
        </mxCell>
        <mxCell id="sZMAS4d0KbfVJv_1hAJX-15" value="" style="endArrow=none;html=1;rounded=0;strokeWidth=5.1181;" edge="1" parent="1">
          <mxGeometry width="50" height="50" relative="1" as="geometry">
            <mxPoint x="350" y="219.5" as="sourcePoint" />
            <mxPoint x="420" y="219.5" as="targetPoint" />
          </mxGeometry>
        </mxCell>
        <mxCell id="sZMAS4d0KbfVJv_1hAJX-16" value="" style="endArrow=none;html=1;rounded=0;strokeWidth=5.1181;" edge="1" parent="1">
          <mxGeometry width="50" height="50" relative="1" as="geometry">
            <mxPoint x="440" y="219.5" as="sourcePoint" />
            <mxPoint x="510" y="219.5" as="targetPoint" />
          </mxGeometry>
        </mxCell>
        <mxCell id="sZMAS4d0KbfVJv_1hAJX-17" value="" style="endArrow=none;html=1;rounded=0;strokeWidth=5.1181;" edge="1" parent="1">
          <mxGeometry width="50" height="50" relative="1" as="geometry">
            <mxPoint x="289" y="260" as="sourcePoint" />
            <mxPoint x="359" y="260" as="targetPoint" />
          </mxGeometry>
        </mxCell>
        <mxCell id="sZMAS4d0KbfVJv_1hAJX-18" value="" style="endArrow=none;html=1;rounded=0;strokeWidth=5.1181;" edge="1" parent="1">
          <mxGeometry width="50" height="50" relative="1" as="geometry">
            <mxPoint x="379" y="260" as="sourcePoint" />
            <mxPoint x="449" y="260" as="targetPoint" />
          </mxGeometry>
        </mxCell>
        <mxCell id="sZMAS4d0KbfVJv_1hAJX-19" value="" style="endArrow=none;html=1;rounded=0;strokeWidth=5.1181;" edge="1" parent="1">
          <mxGeometry width="50" height="50" relative="1" as="geometry">
            <mxPoint x="469" y="260" as="sourcePoint" />
            <mxPoint x="539" y="260" as="targetPoint" />
          </mxGeometry>
        </mxCell>
        <mxCell id="sZMAS4d0KbfVJv_1hAJX-20" value="" style="endArrow=none;html=1;rounded=0;strokeWidth=5.1181;" edge="1" parent="1">
          <mxGeometry width="50" height="50" relative="1" as="geometry">
            <mxPoint x="260" y="300" as="sourcePoint" />
            <mxPoint x="330" y="300" as="targetPoint" />
          </mxGeometry>
        </mxCell>
        <mxCell id="sZMAS4d0KbfVJv_1hAJX-21" value="" style="endArrow=none;html=1;rounded=0;strokeWidth=5.1181;" edge="1" parent="1">
          <mxGeometry width="50" height="50" relative="1" as="geometry">
            <mxPoint x="350" y="300" as="sourcePoint" />
            <mxPoint x="420" y="300" as="targetPoint" />
          </mxGeometry>
        </mxCell>
        <mxCell id="sZMAS4d0KbfVJv_1hAJX-22" value="" style="endArrow=none;html=1;rounded=0;strokeWidth=5.1181;" edge="1" parent="1">
          <mxGeometry width="50" height="50" relative="1" as="geometry">
            <mxPoint x="440" y="300" as="sourcePoint" />
            <mxPoint x="510" y="300" as="targetPoint" />
          </mxGeometry>
        </mxCell>
        <mxCell id="sZMAS4d0KbfVJv_1hAJX-23" value="" style="endArrow=none;html=1;rounded=0;strokeWidth=5.1181;" edge="1" parent="1">
          <mxGeometry width="50" height="50" relative="1" as="geometry">
            <mxPoint x="315" y="340" as="sourcePoint" />
            <mxPoint x="385" y="340" as="targetPoint" />
          </mxGeometry>
        </mxCell>
        <mxCell id="sZMAS4d0KbfVJv_1hAJX-24" value="" style="endArrow=none;html=1;rounded=0;strokeWidth=5.1181;" edge="1" parent="1">
          <mxGeometry width="50" height="50" relative="1" as="geometry">
            <mxPoint x="405" y="340" as="sourcePoint" />
            <mxPoint x="475" y="340" as="targetPoint" />
          </mxGeometry>
        </mxCell>
        <mxCell id="sZMAS4d0KbfVJv_1hAJX-25" value="" style="endArrow=none;html=1;rounded=0;strokeWidth=5.1181;" edge="1" parent="1">
          <mxGeometry width="50" height="50" relative="1" as="geometry">
            <mxPoint x="495" y="340" as="sourcePoint" />
            <mxPoint x="565" y="340" as="targetPoint" />
          </mxGeometry>
        </mxCell>
        <mxCell id="sZMAS4d0KbfVJv_1hAJX-26" value="" style="endArrow=none;html=1;rounded=0;strokeWidth=5.1181;" edge="1" parent="1">
          <mxGeometry width="50" height="50" relative="1" as="geometry">
            <mxPoint x="340" y="380" as="sourcePoint" />
            <mxPoint x="410" y="380" as="targetPoint" />
          </mxGeometry>
        </mxCell>
        <mxCell id="sZMAS4d0KbfVJv_1hAJX-27" value="" style="endArrow=none;html=1;rounded=0;strokeWidth=5.1181;" edge="1" parent="1">
          <mxGeometry width="50" height="50" relative="1" as="geometry">
            <mxPoint x="430" y="380" as="sourcePoint" />
            <mxPoint x="500" y="380" as="targetPoint" />
          </mxGeometry>
        </mxCell>
        <mxCell id="sZMAS4d0KbfVJv_1hAJX-28" value="" style="endArrow=none;html=1;rounded=0;strokeWidth=5.1181;" edge="1" parent="1">
          <mxGeometry width="50" height="50" relative="1" as="geometry">
            <mxPoint x="520" y="380" as="sourcePoint" />
            <mxPoint x="590" y="380" as="targetPoint" />
          </mxGeometry>
        </mxCell>
        <mxCell id="sZMAS4d0KbfVJv_1hAJX-29" value="" style="endArrow=none;html=1;rounded=0;strokeWidth=5.1181;" edge="1" parent="1">
          <mxGeometry width="50" height="50" relative="1" as="geometry">
            <mxPoint x="250" y="380" as="sourcePoint" />
            <mxPoint x="320" y="380" as="targetPoint" />
          </mxGeometry>
        </mxCell>
        <mxCell id="sZMAS4d0KbfVJv_1hAJX-61" value="" style="rounded=0;whiteSpace=wrap;html=1;fillColor=none;strokeWidth=3.1496;dashed=1;strokeColor=#aeb0d4;" vertex="1" parent="1">
          <mxGeometry x="620" y="40" width="60" height="470" as="geometry" />
        </mxCell>
        <mxCell id="sZMAS4d0KbfVJv_1hAJX-62" value="&lt;font style=&quot;font-size: 25px;&quot;&gt;Read Depth&lt;/font&gt;&lt;div style=&quot;font-size: 25px;&quot;&gt;&lt;font style=&quot;font-size: 25px;&quot;&gt;or&lt;/font&gt;&lt;/div&gt;&lt;div style=&quot;font-size: 25px;&quot;&gt;&lt;font style=&quot;font-size: 25px;&quot;&gt;Depth of Coverage&lt;/font&gt;&lt;/div&gt;" style="rounded=0;whiteSpace=wrap;html=1;fillColor=none;strokeColor=none;fontFamily=Computer Modern;" vertex="1" parent="1">
          <mxGeometry x="-20" y="60" width="220" height="90" as="geometry" />
        </mxCell>
        <mxCell id="sZMAS4d0KbfVJv_1hAJX-63" value="" style="endArrow=none;html=1;rounded=0;edgeStyle=orthogonalEdgeStyle;entryX=0;entryY=0.5;entryDx=0;entryDy=0;startArrow=classic;startFill=1;endFill=0;strokeWidth=3.1496;strokeColor=#5cb195;" edge="1" parent="1">
          <mxGeometry width="50" height="50" relative="1" as="geometry">
            <mxPoint x="90" y="150" as="sourcePoint" />
            <mxPoint x="190.22" y="232.56" as="targetPoint" />
            <Array as="points">
              <mxPoint x="90" y="160" />
              <mxPoint x="90" y="233" />
            </Array>
          </mxGeometry>
        </mxCell>
        <mxCell id="sZMAS4d0KbfVJv_1hAJX-64" value="" style="endArrow=classic;html=1;rounded=0;edgeStyle=orthogonalEdgeStyle;strokeWidth=3.1496;" edge="1" parent="1">
          <mxGeometry width="50" height="50" relative="1" as="geometry">
            <mxPoint x="300" y="50" as="sourcePoint" />
            <mxPoint x="410" y="30" as="targetPoint" />
            <Array as="points">
              <mxPoint x="300" y="30" />
            </Array>
          </mxGeometry>
        </mxCell>
        <mxCell id="sZMAS4d0KbfVJv_1hAJX-65" value="&lt;font style=&quot;font-size: 25px;&quot;&gt;Read&lt;br&gt;&lt;/font&gt;" style="rounded=0;whiteSpace=wrap;html=1;fillColor=none;strokeColor=none;fontFamily=Computer Modern;" vertex="1" parent="1">
          <mxGeometry x="414" y="10" width="66" height="40" as="geometry" />
        </mxCell>
        <mxCell id="sZMAS4d0KbfVJv_1hAJX-66" value="" style="rounded=0;whiteSpace=wrap;html=1;fillColor=#e7422f;" vertex="1" parent="1">
          <mxGeometry x="310" y="400" width="10" height="40" as="geometry" />
        </mxCell>
        <mxCell id="sZMAS4d0KbfVJv_1hAJX-68" value="" style="endArrow=none;html=1;rounded=0;edgeStyle=orthogonalEdgeStyle;strokeWidth=3.1496;endFill=0;startArrow=classic;startFill=1;strokeColor=#e7422f;" edge="1" parent="1">
          <mxGeometry width="50" height="50" relative="1" as="geometry">
            <mxPoint x="210" y="470" as="sourcePoint" />
            <mxPoint x="314.5" y="445" as="targetPoint" />
            <Array as="points">
              <mxPoint x="315" y="470" />
            </Array>
          </mxGeometry>
        </mxCell>
        <mxCell id="sZMAS4d0KbfVJv_1hAJX-69" value="&lt;span style=&quot;font-size: 25px;&quot;&gt;Nucleotide&lt;/span&gt;" style="rounded=0;whiteSpace=wrap;html=1;fillColor=none;strokeColor=none;fontFamily=Computer Modern;" vertex="1" parent="1">
          <mxGeometry x="90" y="450" width="120" height="40" as="geometry" />
        </mxCell>
        <mxCell id="sZMAS4d0KbfVJv_1hAJX-73" value="&lt;font face=&quot;Computer Modern&quot; style=&quot;font-size: 27px;&quot;&gt;8x&lt;/font&gt;" style="rounded=0;whiteSpace=wrap;html=1;fillColor=none;strokeColor=none;" vertex="1" parent="1">
          <mxGeometry x="200" y="80" width="40" height="40" as="geometry" />
        </mxCell>
        <mxCell id="sZMAS4d0KbfVJv_1hAJX-74" value="&lt;font face=&quot;Computer Modern&quot; style=&quot;font-size: 27px;&quot;&gt;9x&lt;/font&gt;" style="rounded=0;whiteSpace=wrap;html=1;fillColor=none;strokeColor=none;" vertex="1" parent="1">
          <mxGeometry x="200" y="40" width="40" height="40" as="geometry" />
        </mxCell>
        <mxCell id="sZMAS4d0KbfVJv_1hAJX-75" value="&lt;font face=&quot;Computer Modern&quot; style=&quot;font-size: 27px;&quot;&gt;7x&lt;/font&gt;" style="rounded=0;whiteSpace=wrap;html=1;fillColor=none;strokeColor=none;" vertex="1" parent="1">
          <mxGeometry x="200" y="120" width="40" height="40" as="geometry" />
        </mxCell>
        <mxCell id="sZMAS4d0KbfVJv_1hAJX-76" value="&lt;font face=&quot;Computer Modern&quot; style=&quot;font-size: 27px;&quot;&gt;6x&lt;/font&gt;" style="rounded=0;whiteSpace=wrap;html=1;fillColor=none;strokeColor=none;" vertex="1" parent="1">
          <mxGeometry x="200" y="160" width="40" height="40" as="geometry" />
        </mxCell>
        <mxCell id="sZMAS4d0KbfVJv_1hAJX-77" value="&lt;font face=&quot;Computer Modern&quot; style=&quot;font-size: 27px;&quot;&gt;5x&lt;/font&gt;" style="rounded=0;whiteSpace=wrap;html=1;fillColor=none;strokeColor=none;" vertex="1" parent="1">
          <mxGeometry x="200" y="200" width="40" height="40" as="geometry" />
        </mxCell>
        <mxCell id="sZMAS4d0KbfVJv_1hAJX-78" value="&lt;font face=&quot;Computer Modern&quot; style=&quot;font-size: 27px;&quot;&gt;4x&lt;/font&gt;" style="rounded=0;whiteSpace=wrap;html=1;fillColor=none;strokeColor=none;" vertex="1" parent="1">
          <mxGeometry x="200" y="240" width="40" height="40" as="geometry" />
        </mxCell>
        <mxCell id="sZMAS4d0KbfVJv_1hAJX-79" value="&lt;font face=&quot;Computer Modern&quot; style=&quot;font-size: 27px;&quot;&gt;3x&lt;/font&gt;" style="rounded=0;whiteSpace=wrap;html=1;fillColor=none;strokeColor=none;" vertex="1" parent="1">
          <mxGeometry x="200" y="280" width="40" height="40" as="geometry" />
        </mxCell>
        <mxCell id="sZMAS4d0KbfVJv_1hAJX-80" value="&lt;font face=&quot;Computer Modern&quot; style=&quot;font-size: 27px;&quot;&gt;2x&lt;/font&gt;" style="rounded=0;whiteSpace=wrap;html=1;fillColor=none;strokeColor=none;" vertex="1" parent="1">
          <mxGeometry x="200" y="320" width="40" height="40" as="geometry" />
        </mxCell>
        <mxCell id="sZMAS4d0KbfVJv_1hAJX-81" value="&lt;font face=&quot;Computer Modern&quot; style=&quot;font-size: 27px;&quot;&gt;1x&lt;/font&gt;" style="rounded=0;whiteSpace=wrap;html=1;fillColor=none;strokeColor=none;" vertex="1" parent="1">
          <mxGeometry x="200" y="360" width="40" height="40" as="geometry" />
        </mxCell>
        <mxCell id="sZMAS4d0KbfVJv_1hAJX-82" value="" style="endArrow=baseDash;startArrow=baseDash;html=1;rounded=0;strokeWidth=3.1496;startFill=0;endFill=0;endSize=29.1338;startSize=29.1338;strokeColor=#aeb0d4;" edge="1" parent="1">
          <mxGeometry width="50" height="50" relative="1" as="geometry">
            <mxPoint x="620" y="570.0799999999999" as="sourcePoint" />
            <mxPoint x="680" y="570" as="targetPoint" />
          </mxGeometry>
        </mxCell>
        <mxCell id="sZMAS4d0KbfVJv_1hAJX-85" value="" style="endArrow=none;html=1;rounded=0;strokeWidth=3.1496;edgeStyle=orthogonalEdgeStyle;endFill=0;startArrow=classic;startFill=1;strokeColor=#aeb0d4;" edge="1" parent="1">
          <mxGeometry width="50" height="50" relative="1" as="geometry">
            <mxPoint x="730" y="630" as="sourcePoint" />
            <mxPoint x="650" y="580" as="targetPoint" />
          </mxGeometry>
        </mxCell>
        <mxCell id="sZMAS4d0KbfVJv_1hAJX-86" value="&lt;font face=&quot;Computer Modern&quot; style=&quot;font-size: 25px;&quot;&gt;Not Covered&lt;/font&gt;" style="rounded=0;whiteSpace=wrap;html=1;strokeColor=none;fillColor=none;" vertex="1" parent="1">
          <mxGeometry x="740" y="600" width="100" height="60" as="geometry" />
        </mxCell>
      </root>
    </mxGraphModel>
  </diagram>
</mxfile>
